/vscmnt/brussel_pixiu_data/_data_brussel/112/vsc11236/PredSimResults/SUBJ06opt3D/expIG/worker_02.mot
version=1
nRows=6
nColumns=50
inDegrees=yes
endheader
                time	         pelvis_tilt	         pelvis_list	     pelvis_rotation	           pelvis_tx	           pelvis_ty	           pelvis_tz	       hip_flexion_r	     hip_adduction_r	      hip_rotation_r	        knee_angle_r	       ankle_angle_r	         mtp_angle_r	       hip_flexion_l	     hip_adduction_l	      hip_rotation_l	        knee_angle_l	       ankle_angle_l	         mtp_angle_l	    lumbar_extension	      lumbar_bending	     lumbar_rotation	 ercspn_r/activation	 intobl_r/activation	 extobl_r/activation	    abd_r/activation	    add_r/activation	hamstrings_r/activation	bifemsh_r/activation	glut_max_r/activation	iliopsoas_r/activation	rect_fem_r/activation	  vasti_r/activation	gastroc_r/activation	 soleus_r/activation	tib_ant_r/activation	 ercspn_l/activation	 intobl_l/activation	 extobl_l/activation	    abd_l/activation	    add_l/activation	hamstrings_l/activation	bifemsh_l/activation	glut_max_l/activation	iliopsoas_l/activation	rect_fem_l/activation	  vasti_l/activation	gastroc_l/activation	 soleus_l/activation	tib_ant_l/activation	
          2.46760783	          0.40346911	          5.28150686	        -10.52674087	          1.72732548	          0.95501385	          0.02629925	        -11.93122174	         -7.99695484	        -13.42535402	        -12.46173509	          8.31966570	         29.68284624	         16.31515233	          2.93646170	        -23.22431468	          0.68869800	         -3.92283599	          0.21024355	         -6.71027505	         -3.41778642	          5.48204857	          0.06922679	          0.01000001	          0.01000002	          0.08519272	          0.01000003	          0.01000030	          0.10441608	          0.02910331	          0.09871328	          0.03359105	          0.01000017	          0.18113256	          0.30590227	          0.01274178	          0.18354105	          0.20926404	          0.01000014	          0.01000000	          0.13983971	          0.02898956	          0.01000027	          0.01660988	          0.03429724	          0.09169214	          0.11403017	          0.01000003	          0.01000001	          0.42112683	
          2.48405855	          0.30391440	          5.01643132	        -10.50684789	          1.74315906	          0.95327826	          0.02459538	        -12.45856568	         -8.05456347	        -13.98698873	        -13.11279654	          7.52178196	         31.17949756	         15.44771173	          2.94010705	        -23.30068995	          0.69215372	         -4.17661280	          0.19361625	         -6.23003581	         -3.58140840	          5.67437755	          0.08490039	          0.01000001	          0.01000003	          0.06686089	          0.01000006	          0.01000131	          0.08194788	          0.02284086	          0.07747218	          0.02636294	          0.01683359	          0.16474931	          0.28878221	          0.01000002	          0.14425710	          0.20177793	          0.01000007	          0.01000001	          0.10974895	          0.03233019	          0.01000030	          0.01469829	          0.02691715	          0.07196177	          0.08949316	          0.01274104	          0.01026099	          0.45223890	
          2.50050927	          0.21244714	          4.79191812	        -10.41481124	          1.75925343	          0.95187478	          0.02270996	        -12.85076617	         -8.19500588	        -14.54365967	        -14.04586495	          6.56844761	         32.70599341	         14.61898636	          2.97045153	        -23.45011353	          0.59895803	         -4.61071248	          0.18439021	         -5.73815213	         -3.82176439	          5.84052966	          0.12184589	          0.01000001	          0.01000004	          0.05247372	          0.01000440	          0.02625314	          0.06431448	          0.01792596	          0.06080186	          0.02069017	          0.01321143	          0.12929853	          0.26601582	          0.01000001	          0.11468741	          0.15835925	          0.01000004	          0.01939992	          0.08613314	          0.04636171	          0.01000073	          0.03921820	          0.02112511	          0.05647699	          0.07023600	          0.01000006	          0.01000001	          0.49179067	
          2.51695999	          0.12691609	          4.61607336	        -10.26090608	          1.77535664	          0.95114186	          0.02055996	        -12.96766997	         -8.46078880	        -15.08019175	        -15.45681218	          5.37805728	         34.27255385	         13.88228136	          3.03234666	        -23.65499509	          0.31608761	         -4.79448370	          0.15903286	         -5.25518480	         -4.12200764	          5.98443427	          0.14423333	          0.01000001	          0.01000005	          0.04118239	          0.06332120	          0.02586551	          0.05047685	          0.01406865	          0.07017976	          0.01623806	          0.01036862	          0.10147600	          0.23883774	          0.01000001	          0.11100385	          0.12428341	          0.01000004	          0.05693858	          0.06759900	          0.05082012	          0.01000281	          0.05608101	          0.01657941	          0.04432424	          0.05512259	          0.01000005	          0.01000001	          0.49645631	
          2.53341071	          0.04346839	          4.45340033	        -10.05979213	          1.79124141	          0.95144346	          0.01816979	        -12.68669033	         -8.84173554	        -15.60036796	        -17.49958156	          3.80547222	         35.88307319	         13.19146454	          3.11023120	        -23.76204099	         -0.12019324	         -4.39303983	          0.21046539	         -4.79840321	         -4.43111418	          6.10845327	          0.16065275	          0.01000001	          0.01000005	          0.03232074	          0.12825762	          0.04799268	          0.07337269	          0.01104136	          0.06950350	          0.01274397	          0.01000002	          0.07964033	          0.19944681	          0.01000001	          0.10333599	          0.09754003	          0.01000003	          0.07619857	          0.05305305	          0.05864996	          0.02704539	          0.07382861	          0.01301186	          0.03478652	          0.04326129	          0.01000052	          0.01000007	          0.44735551	
          2.54986143	         -0.04212046	          4.24929087	         -9.81979929	          1.80671933	          0.95290368	          0.01559574	        -11.93163263	         -9.30115816	        -16.10288077	        -20.26826445	          1.80720677	         37.35584308	         12.46773287	          3.17857962	        -23.68509532	         -0.51038224	         -3.65111532	          0.38714050	         -4.38635025	         -4.68535531	          6.21133582	          0.15763576	          0.01000002	          0.01000009	          0.02536594	          0.15871686	          0.09160568	          0.06823006	          0.01000002	          0.05454818	          0.01000174	          0.01000002	          0.06250328	          0.15652972	          0.01000001	          0.09698382	          0.07655130	          0.01000005	          0.07950017	          0.04163711	          0.07139054	          0.09316451	          0.07272303	          0.01021199	          0.02730114	          0.03395232	          0.01000022	          0.01000002	          0.39335890	
